<svg id="Calque_1" data-name="Calque 1" xmlns="http://www.w3.org/2000/svg" viewBox="0 0 134.13 103.25"><defs><style>.cls-1,.cls-2{fill:#7fcde9;}.cls-2{font-size:19.81px;font-family:ArialMT, Arial;}.cls-3{letter-spacing:-0.06em;}</style></defs><title>Blue Logo wimask svg</title><polygon class="cls-1" points="0.91 49.65 26.5 32.62 32.78 34.16 46.92 17.67 52.56 20.36 67.35 4.78 95.24 29.78 98.67 26.68 109.82 41.71 118.46 40.73 131.97 53.12 118.43 36.64 111.31 38.29 98.85 22.02 94.77 25.24 67.53 0 52.09 16.27 46.23 13.36 31.24 30.53 26.47 29.16 0.91 49.65"/><polygon class="cls-1" points="15.53 42.19 26.69 34.44 32.84 37.17 25.78 38.31 25.09 42.19 21.68 40.36 15.53 42.19"/><polygon class="cls-1" points="38.99 28.92 47.42 19.86 50.84 21.68 38.99 28.92"/><polygon class="cls-1" points="40.79 34.82 41.36 34.27 67.53 8.47 92.84 30.35 74.14 20 70.99 17.66 71.36 21.99 66.17 19.38 66.03 26.21 58.34 23.78 56.56 32.86 52.34 27.54 40.79 34.82"/><polygon class="cls-1" points="98.77 30.06 104.29 36.43 98.96 34.38 99.12 38.25 95.77 34.52 91.32 42.47 90.99 34.73 98.77 30.06"/><path class="cls-1" d="M425.25,681h5.24l4.56,3.87-4.9-1.93s-9.91,1.93-7.4,0Z" transform="translate(-311.91 -638.08)"/><rect class="cls-1" x="377.6" y="699.7" width="68.68" height="3.19" transform="translate(653.58 659.12) rotate(167.54)"/><text class="cls-2" transform="translate(0.91 96.81)"><tspan xml:space="preserve">W  I  M </tspan><tspan class="cls-3" x="68.23" y="0" xml:space="preserve"> A</tspan><tspan x="84.77" y="0" xml:space="preserve">  S  K</tspan></text><rect class="cls-1" x="311.39" y="699.36" width="68.68" height="3.19" transform="translate(213.8 823.45) rotate(-167.06)"/></svg>